<svg xmlns="http://www.w3.org/2000/svg" width="58" height="54" viewBox="0 0 58 54">
  <g fill="none" fill-rule="evenodd" transform="translate(1 1)">
    <path stroke="#6B6B6B" stroke-width="2" d="M26,45 C36.4934102,45 45,36.4934102 45,26 C45,15.5065898 36.4934102,7 26,7 C15.5065898,7 7,15.5065898 7,26 C7,28.2794291 7.40139722,30.4651069 8.13736335,32.490205" stroke-linecap="round" stroke-linejoin="round" transform="rotate(156 26 26)"/>
    <g transform="translate(7 7)">
      <path fill="#6B6B6B" fill-rule="nonzero" d="M17.2562162,26.1208108 C13.3005886,25.7162249 10.4219006,22.1815735 10.8264865,18.2259459 C11.0505272,16.0355051 12.2343788,14.1752996 13.9180266,13.0199743 C15.4224206,13.3409446 24.1604689,15.0655742 25.6469503,15.228621 C30.9077482,18.349468 38.7989449,23.0307385 49.3205405,29.2724324 C49.4813164,29.3748805 49.5671366,29.5620364 49.5398575,29.7507169 C49.5125784,29.9393975 49.3772632,30.094582 49.1940541,30.1472973 L37.1778378,33.3094595 C34.9126634,37.0159511 30.6496141,39.0074258 26.3533617,38.3660911 C22.0571092,37.7247565 18.5615176,34.5750898 17.4775676,30.3686486 C17.1153582,29.0033977 17.0400583,27.5475989 17.2562162,26.1208108 Z M31.76,34.8378378 C29.0346306,35.5448329 26.1362065,34.8449406 24.0337838,32.9721622 C23.8696982,32.8707045 23.7813712,32.6816241 23.8088612,32.4906738 C23.8363512,32.2997234 23.9744274,32.143237 24.1604689,32.092185 C24.3465104,32.041133 24.5451172,32.1052296 24.6662162,32.2554054 C26.5286487,33.9117498 29.0934549,34.5322037 31.507027,33.9102703 L36.6613514,32.54 L36.8194595,32.54 L47.8343243,29.6097297 C37.5082276,23.4391047 29.763655,18.8111358 24.6006067,15.7258233 C23.6492333,15.1573056 15.7656403,14.0202703 14.5212543,13.7607935 C13.8871861,14.1936296 13.328732,14.746386 12.8823176,15.4019773 C11.6004301,17.2845201 11.4460218,19.7159363 12.479468,21.7455155 C13.5129142,23.7750948 15.5700399,25.0804147 17.8464865,25.1510811 C17.9887522,25.1513681 18.1233767,25.215497 18.2132423,25.3257866 C18.3031078,25.4360762 18.3387238,25.5808787 18.3102703,25.7202703 C18.0106661,27.1743545 18.0467157,28.6776242 18.4156757,30.1156757 C19.353818,33.7632201 22.288755,36.5571664 25.9780321,37.3147458 C29.6673091,38.0723251 33.4657713,36.6610574 35.7654054,33.6783784 L31.76,34.8378378 Z"/>
      <path fill="#6B6B6B" fill-rule="nonzero" d="M22.9902703,31.2645946 L23.1272973,31.2118919 C23.3532822,31.0714215 23.4238409,30.775075 23.2854054,30.5478378 C22.8844765,29.894407 22.5858865,29.1834784 22.4,28.4397297 C22.3800346,28.2500162 22.2506837,28.0896387 22.0694997,28.0299545 C21.8883158,27.9702702 21.6889718,28.0223715 21.5601623,28.1630768 C21.4313528,28.303782 21.3970172,28.5069412 21.4724324,28.6821622 C21.6826049,29.5077334 22.0166674,30.2966896 22.4632432,31.0221622 C22.5658692,31.210744 22.7802954,31.30938 22.9902703,31.2645946 L22.9902703,31.2645946 Z"/>
      <polyline stroke="#6B6B6B" stroke-width=".77" points="30.052 38.169 30.811 41.552 27.839 42.216" stroke-linecap="round" stroke-linejoin="round"/>
    </g>
    <polyline stroke="#6B6B6B" points="18.4 24 16 21 20 21.203" stroke-linecap="round" stroke-linejoin="round"/>
    <polyline stroke="#6B6B6B" points="18 27 15 24.633 17.923 24.025" stroke-linecap="round" stroke-linejoin="round"/>
    <path stroke="#6B6B6B" d="M41.9060889,9.7793307 C42.1907482,8.41817999 41.8205874,7.00557773 40.9001186,5.94036123 C39.9796498,4.87514473 38.608758,4.27290634 37.1745038,4.30368342 C36.7629672,2.27371677 35.1752079,0.657623819 33.1014961,0.157992491 C31.0277843,-0.341638836 28.8427252,0.365447269 27.4962617,1.97184883 C25.4630095,0.66904678 22.8247906,0.659201779 20.7812232,1.94679043 C18.7376558,3.23437908 17.6788425,5.57360977 18.0862338,7.90081648 C18.4936252,10.2280232 20.289453,12.0989586 22.6571406,12.662894 L21.0333467,20.3350462 L34.7979577,23 L36.7766205,13.4436422 C39.2074099,13.6878347 41.4303739,12.0998275 41.9060889,9.7793307 Z" stroke-linecap="round" stroke-linejoin="round"/>
    <path fill="#6B6B6B" fill-rule="nonzero" stroke="#6B6B6B" stroke-width=".75" d="M27.3433353,1.86775438 C27.736958,2.31166492 28.2092921,3.04378603 28.38626,4.16687971" stroke-linecap="round" stroke-linejoin="round"/>
    <circle cx="23" cy="24" r="1" fill="#6B6B6B" fill-rule="nonzero"/>
  </g>
</svg>
