<svg xmlns="http://www.w3.org/2000/svg" width="190" height="190" viewBox="0 0 190 190">
  <g fill="none" fill-rule="evenodd">
    <path fill="#221F20" d="M95.0001,135.0068 C80.1961,135.0068 67.2801,126.9588 60.3631,115.0048 L12.7161,142.5138 C29.1431,170.9038 59.8401,190.0068 95.0001,190.0068 C130.1601,190.0068 160.8571,170.9038 177.2841,142.5138 L129.6361,115.0048 C122.7201,126.9588 109.8041,135.0068 95.0001,135.0068"/>
    <path fill="#67686B" d="M134.9996,95.0068 C134.9996,102.2918 133.0426,109.1158 129.6396,114.9998 L177.2836,142.5068 C185.3696,128.5318 189.9996,112.3078 189.9996,95.0008 C189.9996,42.5328 147.4676,0.0008 94.9996,0.0008 L94.9996,55.0068 C117.0916,55.0068 134.9996,72.9158 134.9996,95.0068"/>
    <path fill="#DFE0E1" d="M95.0001,55.0068 L95.0001,0.0008 C42.5331,0.0008 0.0001,42.5328 0.0001,95.0008 C0.0001,112.3078 4.6301,128.5318 12.7161,142.5068 L60.3601,114.9998 C56.9571,109.1158 55.0001,102.2918 55.0001,95.0068 C55.0001,72.9158 72.9091,55.0068 95.0001,55.0068"/>
    <path fill="#BE4C9C" d="M135.36,94.6737 C135.36,116.7657 117.452,134.6737 95.36,134.6737 C73.269,134.6737 55.36,116.7657 55.36,94.6737 C55.36,72.5817 73.269,54.6737 95.36,54.6737 C117.452,54.6737 135.36,72.5817 135.36,94.6737"/>
  </g>
</svg>
